<svg id="Layer_1" data-name="Layer 1" xmlns="http://www.w3.org/2000/svg" viewBox="0 0 500 500"><defs><style>.cls-1{fill:#ea1076;}.cls-1,.cls-10,.cls-3,.cls-6,.cls-7,.cls-8,.cls-9{stroke:#2e3191;stroke-miterlimit:10;}.cls-1,.cls-7{stroke-width:10px;}.cls-2{fill:#5372fa;}.cls-10,.cls-3,.cls-7,.cls-9{fill:none;}.cls-3{stroke-width:19px;}.cls-4,.cls-8{fill:#2e3191;}.cls-5,.cls-6{fill:#f1f1f2;}.cls-6,.cls-8,.cls-9{stroke-width:8px;}.cls-10{stroke-width:13px;}</style></defs><path class="cls-1" d="M352,193.81V373.24a12,12,0,0,1-12,12H160.55a12,12,0,0,1-12-12V193.81a12.32,12.32,0,0,1,3.52-8.48,12,12,0,0,1,8.48-3.52H340A12,12,0,0,1,352,193.81Z"/><path class="cls-2" d="M153,381.89c-5.77-8.89,13.32-149.66,13.32-149.66,2.16-17.77,7.05-27.13,28.68-28.16,0,0,84.06-.08,156.91,0V377.43C343.45,392.86,153,381.89,153,381.89Z"/><path class="cls-3" d="M169.84,177c0-31.36,36.57-62.71,82-62.71,43.71,0,77.53,31.35,76.25,62.71"/><ellipse class="cls-4" cx="168.53" cy="185.02" rx="13.98" ry="14.02" transform="translate(-54.7 71.87) rotate(-20.79)"/><ellipse class="cls-4" cx="329.41" cy="185.02" rx="13.98" ry="14.02" transform="matrix(0.93, -0.35, 0.35, 0.93, -44.23, 128.98)"/><circle class="cls-2" cx="168.53" cy="185.02" r="8.52"/><circle class="cls-2" cx="329.41" cy="185.02" r="8.52"/><path class="cls-4" d="M197.56,329.82h102c20.38,0,20.38,28.47,0,28.44-52.17-.07-52.17-.83-102-.21C180.3,358.26,180.3,329.82,197.56,329.82Z"/><path class="cls-5" d="M203.51,347.81v-7.24c0-6.91,7.69-7,7.68,0,0,3.7,0,3.7-.05,7.24C211.05,354.35,203.51,354.39,203.51,347.81Z"/><path class="cls-5" d="M217.56,347.81v-7.24c0-6.91,7.69-7,7.68,0,0,3.7,0,3.7-.06,7.24C225.1,354.35,217.56,354.39,217.56,347.81Z"/><path class="cls-5" d="M232,347.81v-7.24c0-6.91,7.69-7,7.69,0,0,3.7,0,3.7-.06,7.24C239.57,354.35,232,354.39,232,347.81Z"/><path class="cls-5" d="M245.68,347.81v-7.24c0-6.91,7.69-7,7.68,0,0,3.7,0,3.7-.05,7.24C253.23,354.35,245.68,354.39,245.68,347.81Z"/><path class="cls-5" d="M259.73,347.81v-7.24c0-6.91,7.69-7,7.68,0,0,3.7,0,3.7-.06,7.24C267.27,354.35,259.73,354.39,259.73,347.81Z"/><path class="cls-5" d="M274.19,347.81c0-3.54,0-3.54,0-7.24,0-6.91,7.7-7,7.69,0,0,3.7,0,3.7-.06,7.24C281.74,354.35,274.19,354.39,274.19,347.81Z"/><path class="cls-5" d="M288.24,347.81v-7.24c0-6.91,7.69-7,7.68,0,0,3.7,0,3.7-.06,7.24C295.78,354.35,288.24,354.39,288.24,347.81Z"/><path class="cls-6" d="M191.53,279.57c0-17.89,0-17.89,0-36.63,0-21.66,45.32-22.72,45.42,0,.08,18.74.11,18.74-.34,36.63C236,302.54,191.53,303.26,191.53,279.57Z"/><path class="cls-6" d="M211.65,272.15V252.33c0-6.36,4.61-6.73,4.61,0,0,9.39,0,9.76,0,19.82C216.21,277.3,211.65,277.3,211.65,272.15Z"/><path class="cls-6" d="M276.25,279.57V242.94c0-21.66,45.33-22.72,45.43,0,.08,18.74.11,18.74-.34,36.63C320.76,302.54,276.25,303.26,276.25,279.57Z"/><path class="cls-6" d="M296.38,272.15V252.33c0-6.36,4.61-6.73,4.61,0,0,9.39,0,9.76,0,19.82C300.94,277.3,296.38,277.3,296.38,272.15Z"/><path class="cls-7" d="M352,193.81V373.24a12,12,0,0,1-12,12H160.55a12,12,0,0,1-12-12V193.81"/><path class="cls-8" d="M150.44,273.23a30.73,30.73,0,0,1,0-61.46"/><line class="cls-9" x1="92.14" y1="242.5" x2="129.92" y2="242.5"/><circle class="cls-10" cx="87.8" cy="242.5" r="5.87"/><path class="cls-8" d="M350.73,211.77a30.73,30.73,0,0,1,0,61.46"/><line class="cls-9" x1="409.03" y1="242.5" x2="371.25" y2="242.5"/><circle class="cls-10" cx="413.37" cy="242.5" r="5.87"/><path class="cls-2" d="M142.35,213.73l.17,9.71c-14.64,4.25-20.87,24.93-20.87,24.93C116.48,229.39,135.37,213.69,142.35,213.73Z"/><ellipse class="cls-2" cx="83.53" cy="237.27" rx="5.02" ry="2.85" transform="translate(-131.9 107.41) rotate(-39.53)"/><ellipse class="cls-2" cx="416.36" cy="237.78" rx="2.85" ry="5.02" transform="translate(-21.44 433.28) rotate(-53.79)"/><path class="cls-2" d="M358.18,213.73l-.17,9.71c14.77,4.25,21.06,24.93,21.06,24.93C384.29,229.39,365.22,213.69,358.18,213.73Z"/></svg>